<svg width="166" height="32" viewBox="0 0 166 32" fill="none" xmlns="http://www.w3.org/2000/svg">
<g clip-path="url(#clip0_1_5633)">
<path d="M16.3912 0C13.6191 0 11.3291 2.22975 11.3291 5.06215C11.3291 7.89454 13.5589 10.1243 16.3912 10.1243C19.6455 10.1243 22.2971 12.7759 22.2971 16.0301C22.2971 18.742 20.4892 21.032 18.0184 21.7552C20.2481 22.4783 21.8752 24.5273 21.8752 26.9981C21.8752 29.0471 20.7302 30.855 19.0429 31.8192C26.5758 30.5537 32.3611 23.9849 32.3611 16.0301C32.4214 7.17137 25.25 0 16.3912 0Z" fill="#5244AB"/>
<path d="M15.9699 31.9999C18.742 31.9999 21.032 29.7701 21.032 26.9377C21.032 24.1656 18.8023 21.8756 15.9699 21.8756C12.7156 21.8756 10.064 19.224 10.064 15.9697C10.064 13.2579 11.8719 10.9679 14.3427 10.2447C12.113 9.52153 10.4859 7.47257 10.4859 5.00176C10.4859 2.95279 11.6309 1.14488 13.3183 0.180664C5.78531 1.50646 0 8.0752 0 16.03C0 24.8285 7.17137 31.9999 15.9699 31.9999Z" fill="#F15C45"/>
<path d="M44.8359 16.2113C44.8359 9.70283 49.7776 5.48438 55.2616 5.48438C60.9263 5.48438 63.8793 8.97967 64.6627 12.2942L60.9263 13.4994C60.4442 11.5107 58.8171 9.34125 55.2616 9.34125C52.1881 9.34125 48.9339 11.5107 48.9339 16.2113C48.9339 20.5503 52.0073 22.9608 55.3218 22.9608C58.8171 22.9608 60.5045 20.6708 61.1071 18.7424L64.8435 19.8874C64.06 23.0211 61.1071 26.878 55.3821 26.878C49.5968 26.878 44.8359 22.7198 44.8359 16.2113Z" fill="#393E45"/>
<path d="M80.4522 19.3453C80.4522 23.6843 77.2583 26.8783 72.9795 26.8783C68.7008 26.8783 65.5068 23.6843 65.5068 19.3453C65.5068 14.9461 68.7008 11.8124 72.9795 11.8124C77.2583 11.7521 80.4522 14.9461 80.4522 19.3453ZM76.6556 19.3453C76.6556 16.6335 74.908 15.3077 73.0398 15.3077C71.1716 15.3077 69.424 16.6937 69.424 19.3453C69.424 21.9969 71.1716 23.383 73.0398 23.383C74.908 23.383 76.6556 21.9969 76.6556 19.3453Z" fill="#393E45"/>
<path d="M85.2123 26.4563H81.3555V12.1738H85.0918V13.9214C85.9355 12.4751 87.6831 11.752 89.1897 11.752C92.7453 11.752 94.3121 14.283 94.3121 17.4167V26.396H90.4553V18.1399C90.4553 16.573 89.6718 15.3075 87.8037 15.3075C86.1163 15.3075 85.1521 16.6333 85.1521 18.2604V26.4563H85.2123Z" fill="#393E45"/>
<path d="M103.955 26.4566H100.098L94.3125 12.2344H98.531L102.087 21.756L105.461 12.2344H109.499L103.955 26.4566Z" fill="#393E45"/>
<path d="M122.395 22.3586C121.672 24.8294 119.442 26.8784 115.886 26.8784C111.969 26.8784 108.534 24.046 108.534 19.2852C108.534 14.7654 111.909 11.8125 115.525 11.8125C119.924 11.8125 122.576 14.6449 122.576 19.1647C122.576 19.707 122.515 20.3097 122.515 20.3699H112.331C112.391 22.2381 114.018 23.6242 115.947 23.6242C117.755 23.6242 118.719 22.7202 119.201 21.4547L122.395 22.3586ZM118.839 17.7183C118.779 16.272 117.875 14.8859 115.645 14.8859C113.657 14.8859 112.572 16.3925 112.451 17.7183H118.839Z" fill="#393E45"/>
<path d="M132.881 16.0301C132.459 15.9699 132.098 15.9096 131.736 15.9096C129.747 15.9096 128.06 16.8738 128.06 19.9473V26.4558H124.203V12.1733H127.939V14.2825C128.783 12.4143 130.772 12.0527 131.977 12.0527C132.278 12.0527 132.58 12.0527 132.881 12.113V16.0301Z" fill="#393E45"/>
<path d="M140.414 12.1735H143.307V15.6086H140.414V21.5747C140.414 22.8402 141.017 23.2018 142.102 23.2018C142.584 23.2018 143.066 23.1415 143.307 23.0813V26.2752C142.945 26.3958 142.283 26.6368 141.137 26.6368C138.365 26.6368 136.618 25.0097 136.618 22.2376V15.6086H134.026V12.1735H134.75C136.256 12.1735 136.919 11.2093 136.919 9.94378V7.95508H140.414V12.1735Z" fill="#393E45"/>
<path d="M146.621 5.12305C147.947 5.12305 148.971 6.20779 148.971 7.53359C148.971 8.79913 147.947 9.88387 146.621 9.88387C145.295 9.88387 144.271 8.79913 144.271 7.53359C144.271 6.20779 145.355 5.12305 146.621 5.12305ZM144.753 26.4564V12.1739H148.609V26.3961H144.753V26.4564Z" fill="#393E45"/>
<path d="M165.062 19.3455C165.062 23.6844 161.868 26.8784 157.589 26.8784C153.31 26.8784 150.116 23.6844 150.116 19.3455C150.116 14.9462 153.31 11.8125 157.589 11.8125C161.868 11.8125 165.062 14.9462 165.062 19.3455ZM161.265 19.3455C161.265 16.6336 159.517 15.3078 157.649 15.3078C155.781 15.3078 154.033 16.6939 154.033 19.3455C154.033 21.9971 155.781 23.3831 157.649 23.3831C159.517 23.3831 161.265 21.9971 161.265 19.3455Z" fill="#393E45"/>
</g>
<defs>
<clipPath id="clip0_1_5633">
<rect width="165.062" height="32" fill="white"/>
</clipPath>
</defs>
</svg>
